<svg xmlns="http://www.w3.org/2000/svg" version="1.1" viewBox="0 0 630 630">
<!--
The MIT License (MIT)

Copyright (c) 2011 Christopher Williams <chris@iterativedesigns.com>,
                     Manuel Strehl <boldewyn@gmail.com>
Copyright (c) 2016 Jordan J Klassen <forivall@gmail.com>

Permission is hereby granted, free of charge, to any person obtaining a copy
of this software and associated documentation files (the "Software"), to deal
in the Software without restriction, including without limitation the rights
to use, copy, modify, merge, publish, distribute, sublicense, and/or sell
copies of the Software, and to permit persons to whom the Software is
furnished to do so, subject to the following conditions:

The above copyright notice and this permission notice shall be included in
all copies or substantial portions of the Software.

THE SOFTWARE IS PROVIDED "AS IS", WITHOUT WARRANTY OF ANY KIND, EXPRESS OR
IMPLIED, INCLUDING BUT NOT LIMITED TO THE WARRANTIES OF MERCHANTABILITY,
FITNESS FOR A PARTICULAR PURPOSE AND NONINFRINGEMENT. IN NO EVENT SHALL THE
AUTHORS OR COPYRIGHT HOLDERS BE LIABLE FOR ANY CLAIM, DAMAGES OR OTHER
LIABILITY, WHETHER IN AN ACTION OF CONTRACT, TORT OR OTHERWISE, ARISING FROM,
OUT OF OR IN CONNECTION WITH THE SOFTWARE OR THE USE OR OTHER DEALINGS IN
THE SOFTWARE.
-->
 <g id="logo">
  <rect width="630" height="630" fill="#f7df1e"/>
  <g transform="translate(5.006794,5.0002465)">
   <path d="m 398.42 295.05 c -0.971 -0.003 -1.945 0.004 -2.922 0.022 -25.525 1.888 -49.895 12.01 -67.06 32.832 -17.16 20.816 -26.748 51.975 -23.781 94.46 0.789 7.878 8.492 64.42 12.9 83.38 6.345 24.21 16.903 57.902 40.32 63.64 l 0.885 0.115 c 2.522 0.115 5.03 0.106 7.346 0.092 2.313 -0.009 4.527 -0.737 7.385 -1.773 2.836 -1.022 6.124 -2.426 8.363 -3.443 2.239 -1.018 3.198 -1.543 3.926 -1.902 0.728 -0.359 1.408 -0.732 2.02 -1.045 4.174 -2.132 8.712 -4.603 13.674 -7.426 0.131 -0.074 0.258 -0.139 0.393 -0.217 0.017 -0.009 0.039 -0.023 0.06 -0.037 25.346 -14.504 59.37 -36.973 90.11 -59.01 19.543 -14.02 37.62 -27.764 51.03 -39.07 6.705 -5.65 12.233 -10.669 16.293 -14.938 2.03 -2.136 3.698 -4.07 5.01 -5.953 1.316 -1.883 2.475 -3.541 2.775 -6.492 3.572 -35.518 3.58 -60.69 0.766 -78.965 l -0.033 -0.221 -0.053 -0.217 c -0.205 -0.884 -2.419 -10.365 -7.912 -20.09 -5.502 -9.724 -15.03 -20.379 -29.27 -20.379 -19.247 0 -36.11 5.683 -50.762 15.191 -23.938 -18.837 -51.36 -28.469 -81.46 -28.555 z m 6.32 9.734 c 17.925 0.556 35.946 7.953 49.53 15.16 10.387 5.593 16.16 10.773 16.16 10.773 0 0 -18.647 16.555 -32.871 40.527 -19.372 38.633 -28.23 62.46 -37.08 105.59 -3.966 16.747 -3.246 22.24 -6.096 35.979 -2.744 13.23 -3.809 17.275 -7.314 24.539 -4.03 8.689 -10.45 18.435 -19.691 19.684 -3.52 0.406 -8.574 1.719 -15.701 -4.111 -12.385 -10.929 -19.266 -30.565 -23.457 -46.766 -6.49 -31.05 -13.602 -64 -14.768 -94.33 -0.729 -34.684 8.145 -66.44 29.443 -84.67 19.438 -16.202 36.998 -22.746 61.854 -22.375 z m 125.9 15.13 c 9.114 0 15.387 6.768 19.918 14.775 4.483 7.924 6.483 16.227 6.605 16.738 2.509 16.502 2.648 40.605 -0.803 75.14 -0.279 0.548 -0.265 0.598 -0.762 1.357 -0.754 1.16 -2.148 2.753 -3.93 4.65 -3.568 3.753 -8.879 8.606 -15.4 14.1 -13.04 10.995 -30.971 24.635 -50.36 38.535 -32.06 22.99 -65.74 44.5 -90.56 58.42 0.897 -2.275 1.765 -4.81 2.623 -7.426 0.122 -0.378 0.261 -0.686 0.383 -1.068 0.009 -0.023 0.019 -0.056 0.027 -0.084 0.989 -3.113 1.946 -6.501 2.865 -10.152 0.026 -0.111 0.057 -0.197 0.088 -0.303 l 0 -0.01 c 0.688 -2.753 1.324 -5.848 1.965 -8.938 0.257 -1.234 0.545 -2.302 0.793 -3.596 0.005 -0.018 0.006 -0.036 0.01 -0.055 0.845 -4.429 1.642 -9.199 2.383 -14.352 4.84 -33.861 16.05 -78.993 36.11 -115.06 20.04 -36.07 48.14 -62.686 88.04 -62.686 z" stroke="#000000" stroke-width="12"/>
   <path d="m 332.44 328.22 c -17.16 19.558 -26.749 48.831 -23.782 88.74 0.789 7.402 8.491 60.52 12.9 78.34 3.603 14.193 8.19 27.608 14.507 38.34 6.317 10.733 14.673 19.14 25.817 21.452 l 0.884 0.108 c 2.522 0.108 5.03 0.1 7.345 0.087 2.313 -0.009 4.526 -0.692 7.384 -1.665 2.836 -0.96 6.125 -2.28 8.364 -3.236 2.239 -0.956 3.198 -1.449 3.925 -1.787 0.728 -0.337 1.407 -0.688 2.02 -0.982 4.174 -2 8.713 -4.326 13.675 -6.978 0.131 -0.069 0.257 -0.13 0.392 -0.203 0.017 -0.009 0.039 -0.022 0.061 -0.035 25.346 -13.627 59.37 -34.737 90.11 -55.44 19.543 -13.168 37.618 -26.09 51.03 -36.71 6.705 -5.308 12.233 -10.02 16.293 -14.03 2.03 -2.01 3.699 -3.824 5.01 -5.593 1.316 -1.769 2.474 -3.327 2.775 -6.1 3.572 -33.37 3.581 -57.02 0.767 -74.19 l -0.035 -0.208 -0.052 -0.203 c -0.205 -0.831 -2.418 -9.738 -7.911 -18.874 -5.502 -9.136 -15.03 -19.15 -29.27 -19.15 -19.247 0 -36.11 5.338 -50.762 14.271 -24.71 -18.268 -53.13 -27.323 -84.38 -26.808 -25.525 1.774 -49.895 11.286 -67.06 30.848 m 135.75 -1.588 -36.38 -5.567 0.418 5.442 0.614 7.96 -3.912 -0.601 -0.248 -3.167 -29.703 -4.983 -1.176 3.521 -0.257 0.761 -7.506 0.212 -18.201 9.794 -6.02 -4.265 -10.09 12.428 -0.017 -0.026 -7.606 4.681 -9.715 10.984 -7.02 11.818 -12.12 18.14 c 1.538 -25.982 9.589 -44.99 21.39 -58.44 14.938 -17.01 36.2 -25.497 59.29 -27.16 25.05 -0.363 47.743 5.775 68.25 18.467 m 66.45 -5.918 c 9.114 0 15.387 6.359 19.918 13.882 4.483 7.445 6.482 15.245 6.604 15.725 2.509 15.504 2.649 38.15 -0.802 70.6 -0.279 0.515 -0.266 0.562 -0.762 1.276 -0.754 1.09 -2.148 2.587 -3.93 4.369 -3.568 3.526 -8.879 8.09 -15.4 13.25 -13.04 10.33 -30.97 23.14 -50.36 36.2 -32.06 21.599 -65.739 41.81 -90.56 54.892 0.897 -2.137 1.764 -4.521 2.623 -6.978 0.122 -0.355 0.261 -0.645 0.383 -1 0.009 -0.022 0.017 -0.052 0.026 -0.078 0.989 -2.924 1.947 -6.108 2.867 -9.539 0.026 -0.104 0.057 -0.186 0.087 -0.286 l 0 -0.009 c 0.688 -2.587 1.324 -5.494 1.965 -8.397 0.257 -1.159 0.545 -2.163 0.793 -3.379 0.004 -0.017 0.004 -0.035 0.009 -0.052 0.845 -4.162 1.642 -8.643 2.383 -13.484 4.84 -31.813 16.05 -74.22 36.11 -108.1 20.04 -33.889 48.14 -58.893 88.04 -58.893 m -93.28 10.56 23.2 3.547 -2.27 4.724 -20.05 3.227 z m -36.433 4.2 15.614 2.617 0.989 12.809 -21.03 -2.146 z m -10.26 3.253 -5.846 17.533 3.555 0.363 -1 2.427 -4.221 10.09 -1.507 -19.376 -5.89 -4.175 12.643 -6.8 z m 34.983 3.997 3.912 0.61 0.723 9.487 20.371 -3.279 c -6.469 7.557 -12.281 15.85 -17.47 24.589 -2.888 4.884 -5.585 9.924 -8.116 15.05 l -2.644 -7.501 7.149 -17.676 -31.746 -6.411 29.18 2.981 z m -62.16 4.789 9.793 6.943 0.749 9.681 -19.9 9.132 -1 -12.978 z m -18.729 17.719 1.634 21.13 36.586 -16.806 -5.197 12.42 17.308 2.669 -19.656 14.211 -19.325 -15.34 -34.32 26.808 4.278 3.405 8.818 6.995 -2.087 4.845 -8.831 -1.674 -6.909 -9.599 -0.44 -5.02 2.518 -5.641 15.644 -23.425 6.731 -11.312 m 52.5 -3.244 23.551 4.759 -3.402 8.423 -24.1 -3.716 z m 13.257 20.868 8.05 1.242 3.598 10.188 -17.23 11.879 -13.07 -9.82 z m -51.21 8.03 11.506 9.171 -21.325 14.968 -10.429 -8.306 m 44.994 -5.39 20.685 15.521 14.202 -9.794 c -0.95 2.431 -1.926 4.849 -2.81 7.294 l -19.317 12.463 -13.971 -5.602 0.919 -1.665 -18.925 -4.715 z m -28.583 20.09 15.239 3.803 -11.427 20.76 -20.898 -7.484 6.809 -15.79 3.964 3.154 z m -34.983 4.369 0.109 0.16 -0.091 0 c -0.009 -0.061 -0.009 -0.104 -0.017 -0.147 m 91.14 1.782 c -1.856 5.901 -3.459 11.736 -4.953 17.507 l -2.3 2.613 1.303 1.462 c -0.331 1.337 -0.675 2.682 -0.989 4.01 l -6.927 -7.817 2.453 -2.764 -7 -7.882 4.553 1.826 z m -87.958 0.779 8.865 1.678 -2.357 5.537 -6.517 -3.88 m 54.983 -2.846 6.169 2.474 -0.078 0.087 -9.902 11.17 2.444 2.747 -5.803 -3.456 z m -56.43 9.556 5.358 3.184 -0.823 1.903 0.187 0.087 -0.091 0.216 1.377 0.818 -0.366 0.826 -1.377 -0.826 -2.57 5.693 c -0.649 -4.162 -1.163 -7.973 -1.695 -11.901 m 12.399 7.925 19.656 7.04 -0.562 1.242 -4.426 9.759 7.223 4.291 -0.375 0.826 -4.265 9.379 -5.777 -3.448 4.579 -10.114 -11.214 -6.701 1.703 -3.742 -8.195 -4.884 z m 46.885 3.751 6.03 6.792 0.457 -0.515 9.327 10.568 5.759 -6.532 c -0.083 0.394 -0.166 0.774 -0.248 1.168 l -7.31 8.28 4.696 5.273 c -0.113 0.653 -0.222 1.306 -0.331 1.951 l -0.091 -0.017 -0.41 2.695 -2.178 -2.466 0.109 -0.125 -8.839 -9.997 0.832 -0.947 -9.767 -11.08 -0.68 0.77 z m -17.15 4.724 10.142 6.03 -4.74 5.373 8.848 9.98 -0.858 0.965 7.14 8.02 -0.118 0.134 9.759 11.04 2.509 -2.838 -1.542 7.12 -6.604 -7.48 -2.784 3.154 -6.988 7.925 9.767 11.03 4.01 -4.512 c -0.1 0.342 -0.196 0.748 -0.296 1.081 -0.906 3.01 -1.83 5.658 -2.766 8.12 l -9.05 -10.123 -2.766 3.128 -0.741 0.835 -9.854 -5.849 3.856 -8.466 1.669 1.877 12.677 -14.289 -12.677 -14.371 -2.784 3.154 -1.973 2.241 2.222 -4.875 -7.24 -4.317 4.814 -10.56 -4.195 -2.5 z m -32.23 16.24 -0.135 0.303 8.831 5.265 -0.161 0.363 -5.04 11.07 -5.328 -3.703 c -0.566 -2.397 -1.124 -4.776 -1.638 -7.229 m 29.816 6.134 3.376 2.02 -1.581 1.791 7.48 8.431 -8.364 -4.983 -1.712 3.768 -4.426 9.751 10.303 6.134 -0.091 0.203 -4.426 9.733 12.551 7.484 1.838 -4.049 7.358 8.375 7.733 -8.695 c -2.431 5.745 -4.871 9.842 -7.105 12.649 l -5.685 1.454 -11.732 -13.255 -4.465 9.803 -13.862 -8.254 0.928 -2.046 4.296 2.561 6.143 -13.493 -12.577 -7.493 -1.712 3.768 -2.178 4.797 -1.438 -0.852 c -1.089 -2.643 -2.139 -5.39 -3.115 -8.28 l 4.265 -9.413 -3.921 -2.349 0.296 -0.658 13.98 8.306 z" stroke="#000000" stroke-width="4"/>
  </g>
 </g>
</svg>
